# xmcd
#
# Track frame offsets:
#	150
#	1047
#	21890
#	39672
#	56022
#	74382
#	94087
#	108182
#	127622
#	140390
#	153745
#	167142
#	186730
#	212995
#	231660
#	250255
#	266850
#	304637
#
# Disc length: 4203 seconds
#
# Revision: 10
# Processed by: cddbd v1.5.1PL2 Copyright (c) Steve Scherf et al.
# Submitted via: audiograbber 1.83.01
#
DISCID=03106912
DTITLE=Spliff - 0209 Alles Gute
DYEAR=1993
DGENRE=Neue Deutsche Welle
TTITLE0=Wellensalat
TTITLE1=Herzlichen Glückwunsch
TTITLE2=Carbonara
TTITLE3=Das Blech
TTITLE4=Deja Vu
TTITLE5=Radio
TTITLE6=Duett Komplett (Remix)
TTITLE7=Labyrinth
TTITLE8=Notausgang
TTITLE9=Herr Kennedy
TTITLE10=Computer Sind Doof
TTITLE11=Heut' Nacht
TTITLE12=Glaspalast
TTITLE13=Kill
TTITLE14=Jerusalem
TTITLE15=Telefon Terror
TTITLE16=Rand Der Welt
TTITLE17=Müller (Live)
EXTD=1993
EXTT0=
EXTT1=
EXTT2=
EXTT3=
EXTT4=
EXTT5=
EXTT6=
EXTT7=
EXTT8=
EXTT9=
EXTT10=
EXTT11=
EXTT12=
EXTT13=
EXTT14=
EXTT15=
EXTT16=
EXTT17=
PLAYORDER=
